# WaveFront *.obj file (generated by CINEMA 4D)

mtllib ./questionmark.mtl

v 43.59999847412109 22.20000076293945 0
v 43.59999847412109 0 0
v 65.80000305175781 0 0
v 65.80000305175781 22.20000076293945 0
v 11 98.19999694824219 0
v 28 98.19999694824219 0
v 28.23103904724121 103.37560272216797 0
v 28.73983955383301 107.25759887695312 0
v 29.60000038146973 111.19999694824219 0
v 30.47743988037109 113.98783874511719 0
v 31.47403907775879 116.38143920898438 0
v 32.65456008911133 118.62016296386719 0
v 33.62863922119141 120.15103912353516 0
v 34.70000076293945 121.59999847412109 0
v 36.16799926757812 123.28800201416016 0
v 37.77199935913086 124.83200073242188 0
v 39.51200103759766 126.23200225830078 0
v 41.38800048828125 127.48799896240234 0
v 43.40000152587891 128.60000610351562 0
v 45.33679962158203 129.45176696777344 0
v 47.4031982421875 130.13504028320312 0
v 49.85120010375977 130.69664001464844 0
v 52.72880172729492 131.07415771484375 0
v 55.79999923706055 131.19999694824219 0
v 59.14080047607422 131.04127502441406 0
v 61.875 130.64199829101562 0
v 64.07820129394531 130.1063232421875 0
v 66.15180206298828 129.39207458496094 0
v 68.09580230712891 128.49928283691406 0
v 69.91020202636719 127.42791748046875 0
v 71.32319641113281 126.39871978759766 0
v 72.90000152587891 125 0
v 74.33280181884766 123.44287872314453 0
v 75.60720062255859 121.74752044677734 0
v 76.72319793701172 119.91391754150391 0
v 77.68080139160156 117.94207763671875 0
v 78.48000335693359 115.83200073242188 0
v 79.21219635009766 113.19551849365234 0
v 79.66819763183594 110.78591918945312 0
v 80 107.80000305175781 0
v 80.03224182128906 104.10072326660156 0
v 79.78495788574219 101.202880859375 0
v 79.34175872802734 98.75328063964844 0
v 78.83744049072266 96.92031860351562 0
v 78.19999694824219 95.19999694824219 0
v 76.74500274658203 92.16100311279297 0
v 75.14340209960938 89.47075653076172 0
v 73.85540008544922 87.63555908203125 0
v 72.30000305175781 85.69999694824219 0
v 68.44999694824219 81.5 0
v 64.30000305175781 77.5 0
v 60.09999847412109 73.42500305175781 0
v 56.09999847412109 69 0
v 53.72687911987305 65.92288208007812 0
v 51.59952163696289 62.57952117919922 0
v 50.51087951660156 60.58187866210938 0
v 49.5 58.5 0
v 48.51200103759766 56.04000091552734 0
v 47.63771820068359 53.10300064086914 0
v 46.93788146972656 49.62300109863281 0
v 46.6185188293457 47.14300155639648 0
v 46.40000152587891 44.20000076293945 0
v 46.40000152587891 34.79999923706055 0
v 63.40000152587891 34.79999923706055 0
v 63.40000152587891 42.59999847412109 0
v 63.53499984741211 45.62099838256836 0
v 63.87039947509766 48.07904052734375 0
v 64.31259918212891 50.04275894165039 0
v 64.90000152587891 51.90000152587891 0
v 66.03559875488281 54.6186408996582 0
v 67.31559753417969 57.05064010620117 0
v 68.90000152587891 59.5 0
v 71.55000305175781 62.90000152587891 0
v 74.5 66.09999847412109 0
v 80.80000305175781 72.19999694824219 0
v 87.09999847412109 78.80000305175781 0
v 89.69248199462891 81.90815734863281 0
v 91.20111846923828 84.00704193115234 0
v 92.59999847412109 86.19999694824219 0
v 94.12796020507812 89.02404022216797 0
v 95.37596130371094 91.87203979492188 0
v 96.5 95.09999847412109 0
v 97.17859649658203 97.73587799072266 0
v 97.70960235595703 100.99568176269531 0
v 97.92739868164062 103.53491973876953 0
v 98 106.19999694824219 0
v 97.79044342041016 111.04328155517578 0
v 97.22499847412109 115.25 0
v 96.39295959472656 118.88352203369141 0
v 95.70723724365234 121.08487701416016 0
v 94.90000152587891 123.19999694824219 0
v 93.41500091552734 126.34468078613281 0
v 91.68800354003906 129.2667236328125 0
v 89.90799713134766 131.72991943359375 0
v 88.13500213623047 133.78947448730469 0
v 86.19999694824219 135.69999694824219 0
v 83.63436126708984 137.82783508300781 0
v 80.86544036865234 139.72335815429688 0
v 77.89324188232422 141.38656616210938 0
v 75.60395812988281 142.45024108886719 0
v 72.90000152587891 143.5 0
v 69.1060791015625 144.64047241210938 0
v 64.77500152587891 145.52499389648438 0
v 60.57307815551758 146.01748657226562 0
v 55.79999923706055 146.19999694824219 0
v 50.52719879150391 145.95663452148438 0
v 45.90000152587891 145.30000305175781 0
v 41.86080169677734 144.33375549316406 0
v 39.39120101928711 143.53744506835938 0
v 37 142.60000610351562 0
v 33.42984008789062 140.87564086914062 0
v 30.11136054992676 138.87055969238281 0
v 27.31295967102051 136.80415344238281 0
v 24.97224044799805 134.74603271484375 0
v 22.79999923706055 132.5 0
v 20.3786792755127 129.5286865234375 0
v 18.21871948242188 126.334716796875 0
v 16.16048049926758 122.59648132324219 0
v 14.96111965179443 119.95712280273438 0
v 13.89999961853027 117.19999694824219 0
v 12.60208034515381 112.89536285400391 0
v 11.6843204498291 108.429443359375 0
v 11.11907958984375 103.40936279296875 0
# 123 vertices

vn 0 0 -1
vn 0 0 0
# 2 normals

vt 0.37482899427414 0.15184676647186 0
vt 0.22298221290112 0.15184676647186 0
vt 0.22298221290112 0 0
vt 0.37482899427414 0 0
vt 0.00081450067228 0.70731437206268 0
vt 0 0.67168265581131 0
vt 0.11627907305956 0.67168265581131 0
vt 0.11785937100649 0.70708346366882 0
vt 0.12133953720331 0.73363614082336 0
vt 0.00468071131036 0.74165147542953 0
vt 0.12722298502922 0.7606018781662 0
vt 0.01095813978463 0.77219808101654 0
vt 0.01983584091067 0.80164158344269 0
vt 0.13322462141514 0.77967059612274 0
vt 0.02709384448826 0.82050013542175 0
vt 0.14004130661488 0.79604268074036 0
vt 0.03529740124941 0.83855319023132 0
vt 0.14811600744724 0.81135541200638 0
vt 0.04937564954162 0.864122569561 0
vt 0.15477865934372 0.82182657718658 0
vt 0.06414965540171 0.88596910238266 0
vt 0.16210670769215 0.83173733949661 0
vt 0.08071135729551 0.9062927365303 0
vt 0.17214773595333 0.84328317642212 0
vt 0.09556935727596 0.92165553569794 0
vt 0.18311901390553 0.85384404659271 0
vt 0.1115797534585 0.93573296070099 0
vt 0.19502052664757 0.86342000961304 0
vt 0.13072066009045 0.94986701011658 0
vt 0.2078522592783 0.8720109462738 0
vt 0.1534188836813 0.96358168125153 0
vt 0.22161422669888 0.8796169757843 0
vt 0.17783857882023 0.97537618875504 0
vt 0.23486183583736 0.88544297218323 0
vt 0.19419425725937 0.98178821802139 0
vt 0.24899590015411 0.89011657238007 0
vt 0.21108618378639 0.98723500967026 0
vt 0.26574009656906 0.89395785331726 0
vt 0.2387140840292 0.9938440322876 0
vt 0.28542271256447 0.89654010534286 0
vt 0.27036389708519 0.99833542108536 0
vt 0.30642953515053 0.89740085601807 0
vt 0.30642953515053 1 0
vt 0.32928043603897 0.89631521701813 0
vt 0.33907714486122 0.99875158071518 0
vt 0.34798222780228 0.89358413219452 0
vt 0.36781805753708 0.9953830242157 0
vt 0.36305198073387 0.88992011547089 0
vt 0.39744240045547 0.98933297395706 0
vt 0.37723529338837 0.88503473997116 0
vt 0.42339262366295 0.98153215646744 0
vt 0.39053213596344 0.87892806529999 0
vt 0.44188755750656 0.97435182332993 0
vt 0.40294253826141 0.87160003185272 0
vt 0.45754611492157 0.96707636117935 0
vt 0.41260740160942 0.86456036567688 0
vt 0.47787579894066 0.95570015907288 0
vt 0.42339262366295 0.85499316453934 0
vt 0.49681505560875 0.94273489713669 0
vt 0.43319287896156 0.84434258937836 0
vt 0.51436388492584 0.92818057537079 0
vt 0.52759915590286 0.91511273384094 0
vt 0.4419097006321 0.83274638652802 0
vt 0.53972637653351 0.90102541446686 0
vt 0.44954308867455 0.82020461559296 0
vt 0.55190151929855 0.88417732715607 0
vt 0.45609301328659 0.80671739578247 0
vt 0.56371408700943 0.86419069766998 0
vt 0.46155950427055 0.79228454828262 0
vt 0.57387143373489 0.84268128871918 0
vt 0.46656772494316 0.77425116300583 0
vt 0.58408319950104 0.81315678358078 0
vt 0.57939291000366 0.82821393013 0
vt 0.46968671679497 0.75776964426041 0
vt 0.58977431058884 0.78830373287201 0
vt 0.47195622324944 0.73734611272812 0
vt 0.59364187717438 0.75952994823456 0
vt 0.59507524967194 0.7264022231102 0
vt 0.47217673063278 0.71204322576523 0
vt 0.59457868337631 0.70817321538925 0
vt 0.5930889248848 0.69080495834351 0
vt 0.47048535943031 0.69222217798233 0
vt 0.58481532335281 0.65047883987427 0
vt 0.58945691585541 0.66850811243057 0
vt 0.46745389699936 0.67546707391739 0
vt 0.57712692022324 0.6283997297287 0
vt 0.46400436758995 0.66292971372604 0
vt 0.56859070062637 0.60891956090927 0
vt 0.45964431762695 0.65116280317307 0
vt 0.55813956260681 0.58960330486298 0
vt 0.44969218969345 0.63037621974945 0
vt 0.53825223445892 0.56024736166 0
vt 0.54857128858566 0.57460355758667 0
vt 0.43873733282089 0.61197513341904 0
vt 0.52051985263824 0.53898769617081 0
vt 0.42992749810219 0.59942245483398 0
vt 0.41928863525391 0.58618330955505 0
vt 0.4774281680584 0.4938440322876 0
vt 0.3929548561573 0.55745553970337 0
vt 0.43433651328087 0.45212042331696 0
vt 0.36456909775734 0.53009575605392 0
vt 0.33584132790565 0.50222301483154 0
vt 0.41415867209435 0.43023264408112 0
vt 0.3960328400135 0.40697681903839 0
vt 0.30848154425621 0.47195625305176 0
vt 0.38519561290741 0.39022326469421 0
vt 0.29224953055382 0.45090889930725 0
vt 0.27769848704338 0.42804050445557 0
vt 0.37644049525261 0.37358856201172 0
vt 0.27025225758553 0.41437673568726 0
vt 0.36867305636406 0.35499322414398 0
vt 0.263337880373 0.40013682842255 0
vt 0.25658002495766 0.38331055641174 0
vt 0.36465525627136 0.34228980541229 0
vt 0.25060001015663 0.36322164535522 0
vt 0.36163064837456 0.32885801792145 0
vt 0.2458131313324 0.33941864967346 0
vt 0.3593365252018 0.31204521656036 0
vt 0.24362872540951 0.32245552539825 0
vt 0.24213406443596 0.30232560634613 0
vt 0.35841313004494 0.29138171672821 0
vt 0.24213406443596 0.23803007602692 0
vt 0.35841313004494 0.23803007602692 0
# 123 texture coordinates

o ?
usemtl default
f 3/4/1 2/3/1 1/2/1 4/1/1
f 123/5/1 122/10/1 121/12/1 120/13/1 119/15/1 118/17/1 117/19/1 116/21/1 115/23/1 114/25/1 113/27/1 112/29/1 111/31/1 110/33/1 109/35/1 108/37/1 107/39/1 106/41/1 105/43/1 104/45/1 103/47/1 102/49/1 101/51/1 100/53/1 99/55/1 98/57/1 97/59/1 96/61/1 95/62/1 94/64/1 93/66/1 92/68/1 91/70/1 90/73/1 89/72/1 88/75/1 87/77/1 86/78/1 85/80/1 84/81/1 83/84/1 82/83/1 81/86/1 80/88/1 79/90/1 78/93/1 77/92/1 76/95/1 75/98/1 74/100/1 73/103/1 72/104/1 71/106/1 70/109/1 69/111/1 68/114/1 67/116/1 66/118/1 65/121/1 64/123/1 63/122/1 62/120/1 61/119/1 60/117/1 59/115/1 58/113/1 57/112/1 56/110/1 55/108/1 54/107/1 53/105/1 52/102/1 51/101/1 50/99/1 49/97/1 48/96/1 47/94/1 46/91/1 45/89/1 44/87/1 43/85/1 42/82/1 41/79/1 40/76/1 39/74/1 38/71/1 37/69/1 36/67/1 35/65/1 34/63/1 33/60/1 32/58/1 31/56/1 30/54/1 29/52/1 28/50/1 27/48/1 26/46/1 25/44/1 24/42/1 23/40/1 22/38/1 21/36/1 20/34/1 19/32/1 18/30/1 17/28/1 16/26/1 15/24/1 14/22/1 13/20/1 12/18/1 11/16/1 10/14/1 9/11/1 8/9/1 7/8/1 6/7/1 5/6/1

